<svg width="36" height="34" viewBox="0 0 36 34" fill="none" xmlns="http://www.w3.org/2000/svg">
<path d="M24.6666 10.3333H31.3333C32.2173 10.3333 33.0652 10.6844 33.6903 11.3096C34.3154 11.9347 34.6666 12.7825 34.6666 13.6666V23.6666C34.6666 24.5506 34.3154 25.3985 33.6903 26.0236C33.0652 26.6487 32.2173 26.9999 31.3333 26.9999H27.9999L24.6666 31.9999L19.6666 26.9999H14.6666C13.7825 26.9999 12.9347 26.6487 12.3096 26.0236C11.6844 25.3985 11.3333 24.5506 11.3333 23.6666V23.6666" stroke="#151515" stroke-width="2.5" stroke-linecap="round" stroke-linejoin="round"/>
<path d="M4.66659 2H21.3333C22.2173 2 23.0652 2.35119 23.6903 2.97631C24.3154 3.60143 24.6666 4.44928 24.6666 5.33333V15.3333C24.6666 16.2174 24.3154 17.0652 23.6903 17.6904C23.0652 18.3155 22.2173 18.6667 21.3333 18.6667H16.3333L11.3333 23.6667L6.33325 18.6667H4.66659C3.78253 18.6667 2.93468 18.3155 2.30956 17.6904C1.68444 17.0652 1.33325 16.2174 1.33325 15.3333V5.33333C1.33325 4.44928 1.68444 3.60143 2.30956 2.97631C2.93468 2.35119 3.78253 2 4.66659 2V2Z" stroke="#151515" stroke-width="2.5" stroke-linecap="round" stroke-linejoin="round"/>
</svg>
